<?xml version="1.0" encoding="UTF-8"?>
<svg id="Ebene_1" xmlns="http://www.w3.org/2000/svg" version="1.1" xmlns:xlink="http://www.w3.org/1999/xlink" viewBox="0 0 119.4 114.7">
  <!-- Generator: Adobe Illustrator 30.0.0, SVG Export Plug-In . SVG Version: 2.1.1 Build 123)  -->
  <defs>
    <style>
      .st0 {
        fill: url(#linear-gradient2);
      }

      .st1 {
        fill: url(#G6);
      }

      .st2 {
        fill: url(#G3);
      }

      .st3 {
        fill: url(#linear-gradient1);
      }

      .st4 {
        fill: none;
      }

      .st5 {
        fill: url(#G5);
      }

      .st6 {
        fill: url(#linear-gradient);
      }
    </style>
    <linearGradient id="G6" x1="73.6" y1="28.2" x2="104" y2="80.8" gradientUnits="userSpaceOnUse">
      <stop offset="0" stop-color="#d71920"/>
      <stop offset="1" stop-color="#f58229"/>
    </linearGradient>
    <linearGradient id="G5" x1="74.6" y1="40" x2="108.9" y2="92.9" gradientUnits="userSpaceOnUse">
      <stop offset="0" stop-color="#f15a29"/>
      <stop offset="0" stop-color="#f26d2a"/>
      <stop offset=".4" stop-color="#f5a32d"/>
      <stop offset=".7" stop-color="#f7cb2f"/>
      <stop offset=".9" stop-color="#f8e431"/>
      <stop offset="1" stop-color="#f9ed32"/>
    </linearGradient>
    <linearGradient id="linear-gradient" x1="82.7" y1="103.4" x2="121.9" y2="84.7" gradientUnits="userSpaceOnUse">
      <stop offset="0" stop-color="#2bb673"/>
      <stop offset=".3" stop-color="#70c652"/>
      <stop offset=".6" stop-color="#a7d338"/>
      <stop offset=".9" stop-color="#cadb29"/>
      <stop offset="1" stop-color="#d7df23"/>
    </linearGradient>
    <linearGradient id="G3" x1="0" y1="85.6" x2="90.6" y2="85.6" gradientUnits="userSpaceOnUse">
      <stop offset="0" stop-color="#034ea2"/>
      <stop offset="1" stop-color="#00b6f1"/>
    </linearGradient>
    <linearGradient id="linear-gradient1" x1="32.9" y1="97.2" x2="40" y2="16.2" gradientUnits="userSpaceOnUse">
      <stop offset="0" stop-color="#2e3192"/>
      <stop offset=".5" stop-color="#911d8e"/>
      <stop offset=".9" stop-color="#cf128c"/>
    </linearGradient>
    <linearGradient id="linear-gradient2" x1="37.1" y1="27" x2="30.7" y2="9.3" gradientUnits="userSpaceOnUse">
      <stop offset=".1" stop-color="#9a258f"/>
      <stop offset=".3" stop-color="#af1b8e"/>
      <stop offset=".9" stop-color="#ec008c"/>
    </linearGradient>
  </defs>
  <path class="st4" d="M40.3,6.8C26.1,26.9,1.2,67.8,0,90.6c-1.2,22.8,16.7,29.7,33.1,19.5,30.9-19.2,31.8-13.4,57-.2,14.6,7.6,35.4-6.5,27.5-28.7-6.8-19-17.3-37.5-27.7-49.1-14.4-16-31.8,6.2-17.8,21.6,12.9,14.2,34.3,35.4,26.9,40.8-6.2,4.4-13.7-3.4-24.6-10.4-10.9-7-24.5,6.4-44.9,11.4-15.3,3.7-14.6-6.3-7.2-17.1,8.2-12.1,24.7-26.4,38.6-43.2C84.8,6.1,52.2-9.9,40.3,6.8Z"/>
  <path class="st1" d="M69.5,50c-.3-.9-2.9-11.5,11.4-8.6,15.1,3.1,28.5,19,34.3,33.1-6.7-16.6-15.9-32.2-25.1-42.4-13.3-14.8-29.1,3-20.5,18Z"/>
  <path class="st5" d="M69.4,49.9c.7,1.2,1.6,2.5,2.7,3.7,12.9,14.2,34.3,35.4,26.9,40.8-2.5,1.8-5.3,1.6-8.3.2h0c0,0,12,6.3,21.2-4.6,4.6-5.5,3.9-13.3,3.9-13.7-.2-.6-.5-1.2-.7-1.8-5.8-14.1-19.2-30-34.3-33.1-14-2.8-11.7,7.3-11.4,8.6Z"/>
  <path class="st6" d="M117.6,81.1c-.6-1.8-1.6-4.3-1.9-4.9,0,.5.8,8.2-3.9,13.7-9.3,10.9-21.3,4.6-21.2,4.6,0,0-17.5-7.1-39.7,5.8h0c15-6.3,20-.5,39.2,9.5,14.6,7.6,35.4-6.5,27.5-28.7Z"/>
  <path class="st2" d="M50.9,100.4h0c22.2-13,39.7-5.8,39.7-5.8h0c-4.5-2-9.8-6.5-16.2-10.6-10.9-7-24.5,6.4-44.9,11.4-.5.1-1,.2-1.5.3,0,0,0,0,0,0-7.7,2.1-11.7-.6-16.4-7.5-7.6-11-1.9-28.1-.7-31.2,0,0,0-.2.1-.4C4.9,69.1.5,81.3,0,90.6c-1.2,22.8,16.7,29.7,33.1,19.5,7.4-4.6,13.1-7.7,17.8-9.7h0Z"/>
  <path class="st3" d="M60.9,34.9c2.4-2.9,4.2-5.6,5.5-8.2,1.7-4.2-9.9-21.7-39,7.8-8.6,8.7-15.3,20-16.7,22.4-1.2,3.2-6.9,20.2.7,31.2,4.8,6.9,8.8,9.6,16.4,7.5,0,0,0,0,0,0-13.7,2.7-12.8-7-5.6-17.5,8.2-12.1,24.7-26.4,38.6-43.2Z"/>
  <path class="st0" d="M66.5,26.7C78.5,3.2,51-8.3,40.3,6.8c-8.6,12.1-21,31.8-29.8,50.5.4-.7,7.5-13.3,16.9-22.9,29.1-29.5,40.7-11.9,39-7.8Z"/>
</svg>